<?xml version="1.0" standalone="no"?>
<!DOCTYPE svg PUBLIC "-//W3C//DTD SVG 20010904//EN"
 "http://www.w3.org/TR/2001/REC-SVG-20010904/DTD/svg10.dtd">
<svg version="1.0" xmlns="http://www.w3.org/2000/svg"
 width="666.000000pt" height="375.000000pt" viewBox="0 0 666.000000 375.000000"
 preserveAspectRatio="xMidYMid meet">

<g transform="translate(0.000000,375.000000) scale(0.100000,-0.100000)"
fill="#FFFFFF" stroke="none">
<path d="M4464 2796 c-148 -34 -274 -106 -381 -219 -110 -117 -181 -259 -220
-437 -14 -67 -18 -126 -17 -280 1 -178 3 -204 27 -295 85 -320 288 -533 576
-606 71 -18 105 -21 225 -17 126 4 151 8 229 35 118 42 189 85 273 168 80 80
134 166 170 271 39 118 42 114 -79 114 l-103 0 -17 -54 c-64 -203 -264 -336
-505 -336 -296 0 -508 193 -577 524 -21 104 -21 318 1 422 67 329 283 524 579
524 134 0 272 -47 362 -125 54 -46 118 -143 140 -211 l17 -54 103 0 c118 0
115 -3 87 91 -31 105 -93 209 -174 289 -89 88 -158 131 -277 173 -80 28 -102
31 -233 34 -98 2 -165 -2 -206 -11z"/>
<path d="M1440 2778 c0 -7 0 -413 0 -903 0 -490 0 -896 0 -902 0 -10 28 -13
105 -13 l105 0 0 410 0 410 490 0 490 0 2 -407 3 -408 108 -3 107 -3 0 916 0
915 -110 0 -110 0 0 -410 0 -410 -487 2 -488 3 -3 408 -2 407 -105 0 c-77 0
-105 -3 -105 -12z"/>
<path d="M3270 1875 l0 -916 108 3 107 3 0 910 0 910 -107 3 -108 3 0 -916z"/>
</g>
</svg>
